<svg width="128" height="128" viewBox="0 0 128 128" fill="none" xmlns="http://www.w3.org/2000/svg">
<rect width="128" height="128" rx="18" fill="#4F46E5"/>
<path d="M25.68 59C24.9867 59 24.4267 58.84 24 58.52C23.6 58.2 23.4 57.8133 23.4 57.36V31.44C23.4 30.88 23.64 30.4667 24.12 30.2C24.6 29.9067 25.12 29.76 25.68 29.76H33.44C34.8 29.76 36.0933 29.96 37.32 30.36C38.5467 30.7333 39.5467 31.4267 40.32 32.44C41.0933 33.4533 41.48 34.9067 41.48 36.8C41.48 38.4267 41.1733 39.7867 40.56 40.88C39.9467 41.9467 39.12 42.7067 38.08 43.16C38.9067 43.4533 39.6267 43.8667 40.24 44.4C40.8533 44.9067 41.3333 45.5867 41.68 46.44C42.0267 47.2667 42.2 48.3467 42.2 49.68V50.52C42.2 52.6 41.84 54.2667 41.12 55.52C40.4267 56.7467 39.4667 57.64 38.24 58.2C37.04 58.7333 35.6933 59 34.2 59H25.68ZM28.6 54.44H33.08C34.3067 54.44 35.2667 54.0933 35.96 53.4C36.6533 52.7067 37 51.6 37 50.08V49.44C37 47.8667 36.6533 46.7733 35.96 46.16C35.2667 45.52 34.3067 45.2 33.08 45.2H28.6V54.44ZM28.6 41.12H33.08C34.1733 41.12 34.9733 40.8 35.48 40.16C36.0133 39.52 36.28 38.6933 36.28 37.68C36.28 36.96 36.1467 36.36 35.88 35.88C35.6133 35.3733 35.24 34.9867 34.76 34.72C34.28 34.4533 33.7067 34.32 33.04 34.32H28.6V41.12ZM57.3409 59.24C55.5276 59.24 53.9009 58.9467 52.4609 58.36C51.0209 57.7467 49.8743 56.7733 49.0209 55.44C48.1676 54.08 47.7409 52.28 47.7409 50.04V31.4C47.7409 30.8133 48.0076 30.4 48.5409 30.16C49.0743 29.8933 49.6743 29.76 50.3409 29.76C50.9809 29.76 51.5676 29.8933 52.1009 30.16C52.6609 30.4 52.9409 30.8133 52.9409 31.4V50.04C52.9409 51.6133 53.3276 52.7867 54.1009 53.56C54.8743 54.3067 55.9543 54.68 57.3409 54.68C58.7009 54.68 59.7676 54.3067 60.5409 53.56C61.3409 52.7867 61.7409 51.6133 61.7409 50.04V31.4C61.7409 30.8133 61.9943 30.4 62.5009 30.16C63.0343 29.8933 63.6476 29.76 64.3409 29.76C64.9809 29.76 65.5676 29.8933 66.1009 30.16C66.6609 30.4 66.9409 30.8133 66.9409 31.4V50.04C66.9409 52.28 66.5143 54.08 65.6609 55.44C64.8076 56.7733 63.6476 57.7467 62.1809 58.36C60.7409 58.9467 59.1276 59.24 57.3409 59.24ZM82.6909 59.24C80.9309 59.24 79.3443 58.9467 77.9309 58.36C76.5176 57.7467 75.3843 56.7733 74.5309 55.44C73.7043 54.08 73.2909 52.28 73.2909 50.04V38.96C73.2909 36.72 73.7043 34.9333 74.5309 33.6C75.3843 32.24 76.5043 31.2667 77.8909 30.68C79.3043 30.0667 80.8509 29.76 82.5309 29.76C84.3976 29.76 86.0376 30.0667 87.4509 30.68C88.8909 31.2933 90.0243 32.1733 90.8509 33.32C91.6776 34.4667 92.0909 35.84 92.0909 37.44C92.0909 38.4267 91.8776 39.0933 91.4509 39.44C91.0243 39.76 90.3709 39.92 89.4909 39.92C88.7976 39.92 88.1976 39.8 87.6909 39.56C87.1843 39.32 86.9176 38.8933 86.8909 38.28C86.8643 37.64 86.7309 37.0267 86.4909 36.44C86.2776 35.8267 85.8776 35.32 85.2909 34.92C84.7309 34.52 83.8643 34.32 82.6909 34.32C81.3843 34.32 80.3576 34.7067 79.6109 35.48C78.8909 36.2267 78.5309 37.3867 78.5309 38.96V50.04C78.5309 51.6133 78.8909 52.7867 79.6109 53.56C80.3576 54.3067 81.3843 54.68 82.6909 54.68C83.9976 54.68 85.0243 54.3067 85.7709 53.56C86.5176 52.7867 86.8909 51.6133 86.8909 50.04V47.72H83.6509C83.1443 47.72 82.7443 47.5067 82.4509 47.08C82.1843 46.6533 82.0509 46.1867 82.0509 45.68C82.0509 45.1733 82.1843 44.7067 82.4509 44.28C82.7443 43.8533 83.1443 43.64 83.6509 43.64H90.4509C90.9843 43.64 91.3843 43.8133 91.6509 44.16C91.9443 44.48 92.0909 44.88 92.0909 45.36V50.04C92.0909 52.28 91.6776 54.08 90.8509 55.44C90.0243 56.7733 88.8909 57.7467 87.4509 58.36C86.0376 58.9467 84.4509 59.24 82.6909 59.24Z" fill="#F1F1F1"/>
<path d="M25.68 100C24.9867 100 24.4267 99.84 24 99.52C23.6 99.2 23.4 98.8133 23.4 98.36V72.44C23.4 71.88 23.64 71.4667 24.12 71.2C24.6 70.9067 25.12 70.76 25.68 70.76H33.44C34.8 70.76 36.0933 70.96 37.32 71.36C38.5467 71.7333 39.5467 72.4267 40.32 73.44C41.0933 74.4533 41.48 75.9067 41.48 77.8C41.48 79.4267 41.1733 80.7867 40.56 81.88C39.9467 82.9467 39.12 83.7067 38.08 84.16C38.9067 84.4533 39.6267 84.8667 40.24 85.4C40.8533 85.9067 41.3333 86.5867 41.68 87.44C42.0267 88.2667 42.2 89.3467 42.2 90.68V91.52C42.2 93.6 41.84 95.2667 41.12 96.52C40.4267 97.7467 39.4667 98.64 38.24 99.2C37.04 99.7333 35.6933 100 34.2 100H25.68ZM28.6 95.44H33.08C34.3067 95.44 35.2667 95.0933 35.96 94.4C36.6533 93.7067 37 92.6 37 91.08V90.44C37 88.8667 36.6533 87.7733 35.96 87.16C35.2667 86.52 34.3067 86.2 33.08 86.2H28.6V95.44ZM28.6 82.12H33.08C34.1733 82.12 34.9733 81.8 35.48 81.16C36.0133 80.52 36.28 79.6933 36.28 78.68C36.28 77.96 36.1467 77.36 35.88 76.88C35.6133 76.3733 35.24 75.9867 34.76 75.72C34.28 75.4533 33.7067 75.32 33.04 75.32H28.6V82.12ZM57.3409 100.24C55.5276 100.24 53.9009 99.9467 52.4609 99.36C51.0209 98.7467 49.8743 97.7733 49.0209 96.44C48.1676 95.08 47.7409 93.28 47.7409 91.04V72.4C47.7409 71.8133 48.0076 71.4 48.5409 71.16C49.0743 70.8933 49.6743 70.76 50.3409 70.76C50.9809 70.76 51.5676 70.8933 52.1009 71.16C52.6609 71.4 52.9409 71.8133 52.9409 72.4V91.04C52.9409 92.6133 53.3276 93.7867 54.1009 94.56C54.8743 95.3067 55.9543 95.68 57.3409 95.68C58.7009 95.68 59.7676 95.3067 60.5409 94.56C61.3409 93.7867 61.7409 92.6133 61.7409 91.04V72.4C61.7409 71.8133 61.9943 71.4 62.5009 71.16C63.0343 70.8933 63.6476 70.76 64.3409 70.76C64.9809 70.76 65.5676 70.8933 66.1009 71.16C66.6609 71.4 66.9409 71.8133 66.9409 72.4V91.04C66.9409 93.28 66.5143 95.08 65.6609 96.44C64.8076 97.7733 63.6476 98.7467 62.1809 99.36C60.7409 99.9467 59.1276 100.24 57.3409 100.24ZM81.4109 100.36C79.6776 100.36 78.1043 100.107 76.6909 99.6C75.3043 99.0933 74.1976 98.4667 73.3709 97.72C72.5709 96.9467 72.1709 96.1733 72.1709 95.4C72.1709 95.0267 72.2643 94.6267 72.4509 94.2C72.6643 93.7467 72.9443 93.3733 73.2909 93.08C73.6376 92.76 74.0243 92.6 74.4509 92.6C74.8776 92.6 75.2776 92.76 75.6509 93.08C76.0243 93.3733 76.4509 93.7333 76.9309 94.16C77.4109 94.56 77.9976 94.92 78.6909 95.24C79.3843 95.5333 80.2376 95.68 81.2509 95.68C82.0509 95.68 82.7843 95.56 83.4509 95.32C84.1443 95.0533 84.6909 94.6667 85.0909 94.16C85.5176 93.6533 85.7309 93 85.7309 92.2C85.7309 91.3467 85.5043 90.6267 85.0509 90.04C84.5976 89.4533 83.9843 88.9467 83.2109 88.52C82.4376 88.0933 81.5976 87.68 80.6909 87.28C79.7843 86.88 78.8643 86.4533 77.9309 86C77.0243 85.5467 76.1843 85 75.4109 84.36C74.6643 83.72 74.0509 82.9333 73.5709 82C73.1176 81.0667 72.8909 79.92 72.8909 78.56C72.8909 77.0667 73.1709 75.8133 73.7309 74.8C74.3176 73.7867 75.0776 72.9733 76.0109 72.36C76.9709 71.72 78.0243 71.2667 79.1709 71C80.3176 70.7067 81.4643 70.56 82.6109 70.56C83.2243 70.56 83.9443 70.6133 84.7709 70.72C85.6243 70.8 86.4643 70.96 87.2909 71.2C88.1443 71.44 88.8376 71.7733 89.3709 72.2C89.9309 72.6 90.2109 73.1333 90.2109 73.8C90.2109 74.0933 90.1309 74.4533 89.9709 74.88C89.8376 75.3067 89.6109 75.6933 89.2909 76.04C88.9976 76.3867 88.6109 76.56 88.1309 76.56C87.7043 76.56 87.2776 76.44 86.8509 76.2C86.4509 75.9333 85.9176 75.68 85.2509 75.44C84.6109 75.1733 83.7309 75.04 82.6109 75.04C81.6776 75.04 80.8643 75.16 80.1709 75.4C79.4776 75.64 78.9576 75.9867 78.6109 76.44C78.2643 76.8667 78.0909 77.4133 78.0909 78.08C78.0909 78.7733 78.3176 79.36 78.7709 79.84C79.2509 80.32 79.8643 80.7467 80.6109 81.12C81.3843 81.4933 82.2243 81.8667 83.1309 82.24C84.0376 82.6133 84.9443 83.0533 85.8509 83.56C86.7843 84.04 87.6376 84.6267 88.4109 85.32C89.1843 86.0133 89.7976 86.88 90.2509 87.92C90.7043 88.9333 90.9309 90.1867 90.9309 91.68C90.9309 93.5733 90.5176 95.1733 89.6909 96.48C88.8643 97.76 87.7309 98.7333 86.2909 99.4C84.8776 100.04 83.2509 100.36 81.4109 100.36ZM104.55 100C103.884 100 103.284 99.8667 102.75 99.6C102.217 99.3067 101.95 98.88 101.95 98.32V75.44H96.0703C95.5636 75.44 95.1636 75.2 94.8703 74.72C94.577 74.24 94.4303 73.6933 94.4303 73.08C94.4303 72.52 94.5636 72 94.8303 71.52C95.097 71.0133 95.5103 70.76 96.0703 70.76H112.99C113.577 70.76 113.99 71.0133 114.23 71.52C114.497 72 114.63 72.52 114.63 73.08C114.63 73.6933 114.484 74.24 114.19 74.72C113.924 75.2 113.524 75.44 112.99 75.44H107.15V98.32C107.15 98.88 106.87 99.3067 106.31 99.6C105.777 99.8667 105.19 100 104.55 100Z" fill="#F1F1F1"/>
</svg>
